#!OML:ASF F:\VICON\USERDATA\INSTALL\rory3\rory3.ASF
:FULLY-SPECIFIED
:DEGREES
18
root 0.623909494308595 17.83274300280183 -1.9348438825286003 -1.9988531771387452 1.3461546745678197 3.5586959527015916
lfemur 12.059544768812085 -2.3725741233841933 -28.624212909358917
ltibia 14.118957549689306
lfoot -17.122609578078716 -2.7470957385104118
ltoes -2.6630394103361903
rfemur -29.030939692562786 7.571115507854262 13.989149079713739
rtibia 17.360792054079802
rfoot -12.412699351285717 -17.109513707244666
rtoes 2.0510380176864196
lowerback 10.429586825665922 -1.4170182672740252 -4.709757171847384
upperback 0.19940269745123876 -2.391314160129197 1.070719843357189
thorax -5.413449580867101 -1.0421594356145811 4.1315469706582375
lowerneck -16.848472312345365 -2.6384817985437192 -1.7223016819843773
upperneck 21.629705839540307 -3.0673838473775468 -0.6340191173028455
head 9.64846536014626 -1.6426934647867308 -0.3375919920708186
lclavicle 1.4734888063986828e-16 2.372895836364603e-16
lhumerus -21.412445980412485 -1.2971233624643155 80.03167437820447
lradius 31.00336710063594
lwrist 8.143368265419223
lhand -29.375128726541448 4.729117218382498
lfingers 7.12502
lthumb -2.713962692736779 34.691458758881
rclavicle 1.4734888063986828e-16 2.372895836364603e-16
rhumerus -33.416737715439446 -25.965733126033193 -74.30242053266142
rradius 22.748792646185002
rwrist 5.829156333291145
rhand -18.4227292080278 22.694702257101238
rfingers 7.12502
rthumb 7.862297153380852 -7.140558090140702
19
root 0.521956073442766 17.753274778591635 -1.0086427196313288 -2.079689734995256 2.2410029224848595 3.220386371903481
lfemur 15.05112814838731 -3.7123111177862516 -28.052558676938247
ltibia 14.970946547773458
lfoot -16.935173138560717 -2.658727038056469
ltoes -7.797519007480022
rfemur -28.591502600510957 7.00596258448277 14.944270425078372
rtibia 16.700569005989014
rfoot -12.589396004003337 -14.572072086413776
rtoes 0.2658433094439001
lowerback 10.674528261446868 -1.7509788358463054 -4.609098233205308
upperback 0.30470616434894005 -2.8203681010802666 1.2808402791009346
thorax -5.392398109089742 -1.2562530845013393 4.365956623168734
lowerneck -16.730702151879797 -2.7773487008508737 -1.7712713685248702
upperneck 21.22657256212634 -3.2319687265370005 -0.7024074070287791
head 9.486321659505476 -1.7310906538612962 -0.3682423675044899
lclavicle 1.4734891434665057e-16 2.3728955699948125e-16
lhumerus -20.492179166890622 -1.948992923275374 80.20424010173052
lradius 32.27285671886015
lwrist 8.570790298625571
lhand -31.731681942542707 19.074376824145883
lfingers 7.12502
lthumb -4.989621736631556 48.99893717619768
rclavicle 1.4734891434665057e-16 2.3728955699948125e-16
rhumerus -35.02086411651854 -28.350271388577546 -72.05819865310895
rradius 21.93969197328839
rwrist 5.942231728651576
rhand -17.04567698174862 23.595251522761615
rfingers 7.12502
rthumb 9.191295002853066 -6.181011210187837
20
root 0.4025147782598471 17.699827121540118 0.019491268403275086 -2.338567568298376 1.883863947295564 2.790308090800206
lfemur 17.664716774100228 -5.234992960691612 -27.88097234188291
ltibia 18.033064486913908
lfoot -15.142317492953264 -1.2578435316237586
ltoes -14.399735357535269
rfemur -28.466592394022296 4.736207631821804 17.95811870257434
rtibia 23.613655229316418
rfoot -9.497775523031734 -10.044053694163605
rtoes -0.05169365669616566
lowerback 10.16079009645136 -1.729093663800239 -4.486839954061892
upperback 0.5258971988331689 -2.740729889128966 1.459682755708672
thorax -4.874613073255526 -1.2392172146885987 4.443367852648094
lowerneck -16.39058669696069 -2.7480071043042176 -2.0349035625305163
upperneck 20.853885278183423 -3.1860717921722026 -0.4520976662647649
head 9.303059122014634 -1.7029765982928262 -0.2229455729811377
lclavicle 1.4734889545117e-16 2.372895666856763e-16
lhumerus -20.467948312252027 -1.2599579377143826 80.31199381981544
lradius 32.60436340853688
lwrist 7.891884560427318
lhand -30.74186228338015 16.001695958543834
lfingers 7.12502
lthumb -4.033875609316564 45.944855688583665
rclavicle 1.4734889545117e-16 2.372895666856763e-16
rhumerus -36.48395645465844 -32.18109424289504 -69.069137801927
rradius 19.85694247250917
rwrist 10.746911422613945
rhand -19.328589284847045 22.17643292841026
rfingers 7.12502
rthumb 6.987977266959875 -7.692387824456429
21
root 0.2952894052897571 17.801301402895497 1.26613045012747 -2.8173326343568363 1.9019430134819415 0.8861988307497757
lfemur 15.920877952458262 -6.03288494308109 -25.338807188194004
ltibia 26.658979061737824
lfoot -9.212833835453079 -4.572375486073325
ltoes -16.886498406351798
rfemur -26.365380092195018 4.3618221979987855 21.03916470985613
rtibia 27.209194981025927
rfoot -5.409480401921905 -6.56660964520821
rtoes 1.142829652505072
lowerback 9.823996240589409 -1.8570768555423114 -2.861298685980758
upperback 0.40442898628975227 -2.5911601859184024 1.8509844726471336
thorax -4.7086154085544685 -1.1625802930051707 4.096733389942193
lowerneck -16.5491919195923 -2.6892894930455777 -1.9410835938819964
upperneck 21.11899816536601 -3.1657584000372316 -0.8673087007712412
head 9.456111696405447 -1.656490957995027 -0.37093250207279493
lclavicle 1.4616820567062416e-16 2.3635838110977845e-16
lhumerus -21.57959468853268 -0.31814311364034165 80.56829619854528
lradius 32.24584019495619
lwrist 7.920647846980803
lhand -30.831612221990266 18.083516587452838
lfingers 7.12502
lthumb -4.163187364222016 47.765200347318796
rclavicle 1.4559063458996647e-16 2.359375523570639e-16
rhumerus -38.35238775300996 -33.67790268922789 -66.99009975542671
rradius 18.940486812421852
rwrist 13.01227271300258
rhand -18.837554390544305 21.89668586715518
rfingers 7.12502
rthumb 7.437839482543008 -8.038467467582201
22
root 0.1844890979732537 17.899073806676487 1.6694111937735006 -3.397590297431043 1.7755663405846969 -0.41123860992673555
lfemur 11.438346161897353 -4.311513857942633 -22.288982512854542
ltibia 38.36054240205948
lfoot 1.6299439581046622 -12.050336850185689
ltoes -17.463155858597155
rfemur -22.916021682434945 4.272440551449202 23.71051223331821
rtibia 29.43730740819517
rfoot -4.861679050032051 -2.7485120562681287
rtoes 6.814187656465299
lowerback 9.643959006734805 -1.8708040552437368 -1.6875403303526761
upperback 0.2902037317975965 -2.527374059568184 2.1373379355653093
thorax -4.630391659333327 -1.153085112031609 3.8782442646292177
lowerneck -16.478210103797878 -2.6028738302305987 -1.7508438950719054
upperneck 21.359574418536802 -3.014669640845127 -1.158180026657947
head 9.523008015835206 -1.6131620713036814 -0.4424305020931833
lclavicle 1.4633620077104613e-16 2.364820930011973e-16
lhumerus -23.40172989820198 0.6797420954823377 80.9791948056758
lradius 31.32177057714327
lwrist 8.098055701175756
lhand -29.931563501207492 19.621509320912622
lfingers 7.12502
lthumb -3.1709126894914146 49.6163209647524
rclavicle 1.4496676961039733e-16 2.354577420972707e-16
rhumerus -39.280375436739796 -33.58839147903603 -66.44800941771783
rradius 18.744143618975514
rwrist 13.259338656880168
rhand -18.394937776964298 21.991616634756912
rfingers 7.12502
rthumb 7.76769627595392 -7.906377863067156
23
root 0.06666976085530035 18.0262958753915 2.208082149403964 -4.036453845538103 2.0363192051297205 -2.175366781620778
lfemur 4.310425468824819 -2.280337814536799 -18.28996829335486
ltibia 50.67870444447915
lfoot 15.641246654573749 -18.510884683370406
ltoes -1.0930884026296215
rfemur -18.145968376431654 4.639666499328062 26.765876994362124
rtibia 29.3731299813831
rfoot -6.075319364214356 -2.324646333508752
rtoes 10.009436041213913
lowerback 9.841608768172355 -1.8844832292819733 -0.10016519265051804
upperback 0.3048089906056227 -2.4052426764754653 2.4037387187154993
thorax -4.564616941537045 -1.1370481401587942 3.394382484068378
lowerneck -16.439197484176603 -2.6135340634460964 -1.7124114817555631
upperneck 21.380572750956773 -3.0608226173644155 -0.9680384884513513
head 9.495269968169573 -1.6361810929725105 -0.3961346736759671
lclavicle 1.46824089544455e-16 2.368554741441327e-16
lhumerus -25.133310505474412 0.7387435894210306 81.31478863952896
lradius 30.391079000714008
lwrist 7.859427943067928
lhand -29.13649255151595 20.552386666067537
lfingers 7.12502
lthumb -2.286437958500722 50.677172321083475
rclavicle 1.4537208475033502e-16 2.3576933784184247e-16
rhumerus -37.734509025000136 -30.089411969682686 -69.44946337127837
rradius 19.954151208371226
rwrist 10.299018042606642
rhand -18.062044116112794 22.507994523290904
rfingers 7.12502
rthumb 8.091787928124086 -7.348790842163732
24
root -0.034240021913693575 18.10083662574697 3.0338748471308783 -4.4556227767436445 1.4797627523688344 -3.4448001462637805
lfemur -3.562472751436495 0.6165948215566592 -15.231019379945328
ltibia 61.33345944281785
lfoot 18.62285147842384 -19.717381246824772
ltoes 3.303112245695284
rfemur -13.403622176395999 5.333921083530743 29.216816367674475
rtibia 28.442565480702612
rfoot -7.714629508158312 -3.158061920102238
rtoes 10.616138587175723
lowerback 10.048719802840042 -1.556629472614377 1.0946809047023662
upperback 0.3970345531571896 -1.829070986165588 2.5036855838130925
thorax -4.533746878518589 -0.9053276951173523 2.8237911503687605
lowerneck -16.415395592015035 -2.667095809409696 -1.6538674338070125
upperneck 21.270776135069845 -3.2002025600011637 -0.6423676883823812
head 9.449939210039355 -1.6751581168510625 -0.3219988270497655
lclavicle 1.4674354130514633e-16 2.36792249524584e-16
lhumerus -26.133454276053193 0.49692452724259084 81.49596943856284
lradius 29.051245999352357
lwrist 6.496135356210365
lhand -28.37344262742671 21.013764946988363
lfingers 7.12502
lthumb -1.8027445351623066 51.30181488157332
rclavicle 1.4617333855198014e-16 2.3638536515236713e-16
rhumerus -34.82835429051362 -25.902231341265992 -73.27033302858118
rradius 21.152705569895943
rwrist 7.8329594745873035
rhand -17.40811595473859 22.655328527313184
rfingers 7.12502
rthumb 8.822846675375208 -6.7375218232311465
25
root -0.10910688615746261 18.15932240292681 4.11382338356106 -4.816167841762798 0.9063542858439293 -4.221257256539485
lfemur -10.62284426400149 3.4567283192354736 -13.92226802178891
ltibia 67.18916069224852
lfoot 8.301275574610571 -15.272773865825794
ltoes -2.289322733246786
rfemur -9.468475488631443 5.4318916022089585 30.88812560405248
rtibia 27.96772171174058
rfoot -9.643879584692186 -3.975205180279593
rtoes 9.423475785024156
lowerback 9.941441470307474 -1.238713787669129 2.0402295903258834
upperback 0.5352717410578072 -1.278987299636373 2.4516336914642984
thorax -4.3801314266574165 -0.6661145121137549 2.196275058509496
lowerneck -16.224298514384632 -2.7352834973382647 -1.6791513625143042
upperneck 21.16912534914313 -3.352782469164194 -0.3536845805093567
head 9.391226423703438 -1.7208602277731142 -0.23660748395980835
lclavicle 1.4661490598220168e-16 2.3669469541332485e-16
lhumerus -27.21898390407274 0.812947567670065 81.54922698933989
lradius 27.789123697739907
lwrist 4.466137744447225
lhand -28.087462550896127 21.570631654061216
lfingers 7.12502
lthumb -1.7767312252729646 51.59228861393979
rclavicle 1.457247861002731e-16 2.360405332299805e-16
rhumerus -31.44865019489298 -22.174895675441384 -76.42319381700483
rradius 22.048879104420287
rwrist 6.874104260548508
rhand -17.26905677077728 22.01175924842654
rfingers 7.12502
rthumb 9.16234604547954 -6.6659354278060405
